PathFileType  4	(X/Y/Z) C:\Users\antoi\Documents\MyRepositories\mobilecap\ResultsAnalysis
DataRate	CameraRate	NumFrames	NumMarkers	Units	OrigDataRate	OrigDataStartFrame	OrigNumFrames
100.0	100.0	4	51	mm	100.0	188	250
Frame#	Time	r_knee			r_shank_antsup			r_ankle			r_calc			r_5meta			r_toe			L_knee			L_shank_antsup			L_ankle			L_calc			L_5meta			L_toe			r_sh2			r_sh3			r_sh4			L_sh2			L_sh3			r_thigh1			r_thigh2			r_thigh3			r_thigh4			r_thigh5			L_thigh1			L_thigh2			L_thigh3			L_thigh4			r.ASIS			r.PSIS			L.ASIS			L.PSIS			C7			R_Shoulder			L_Shoulder			R_Sternum			L_Sternum			R_humerus			R_elbow_med			R_elbow_lat			R_forearm			R_wrist_radius			R_wrist_ulna			L_humerus			L_elbow_med			L_elbow_lat			L_forearm			L_wrist_radius			L_wrist_ulna			R_HJC			L_HJC			R_HJC_reg			L_HJC_reg			
		X1	Y1	Z1	X2	Y2	Z2	X3	Y3	Z3	X4	Y4	Z4	X5	Y5	Z5	X6	Y6	Z6	X7	Y7	Z7	X8	Y8	Z8	X9	Y9	Z9	X10	Y10	Z10	X11	Y11	Z11	X12	Y12	Z12	X13	Y13	Z13	X14	Y14	Z14	X15	Y15	Z15	X16	Y16	Z16	X17	Y17	Z17	X18	Y18	Z18	X19	Y19	Z19	X20	Y20	Z20	X21	Y21	Z21	X22	Y22	Z22	X23	Y23	Z23	X24	Y24	Z24	X25	Y25	Z25	X26	Y26	Z26	X27	Y27	Z27	X28	Y28	Z28	X29	Y29	Z29	X30	Y30	Z30	X31	Y31	Z31	X32	Y32	Z32	X33	Y33	Z33	X34	Y34	Z34	X35	Y35	Z35	X36	Y36	Z36	X37	Y37	Z37	X38	Y38	Z38	X39	Y39	Z39	X40	Y40	Z40	X41	Y41	Z41	X42	Y42	Z42	X43	Y43	Z43	X44	Y44	Z44	X45	Y45	Z45	X46	Y46	Z46	X47	Y47	Z47	X48	Y48	Z48	X49	Y49	Z49	X50	Y50	Z50	X51	Y51	Z51	

188	1.87000000	-10.19551	485.22076	-441.42677	2.51873	380.80804	-442.99550	-218.73774	140.90210	-446.06093	-290.33415	132.66614	-501.38706	-141.71828	48.88804	-395.34799	-91.83687	65.98152	-441.78735	55.21486	502.20937	-754.33751	73.77028	405.76529	-743.77075	-135.90648	147.05769	-758.64723	-222.23448	135.13962	-704.40978	-76.71668	52.08844	-804.48226	-16.09543	58.61947	-757.22428	-56.66255	282.93451	-443.86514	-54.88880	414.67493	-406.29733	-121.25274	320.33159	-405.16159	9.26053	454.59922	-786.18180	-50.26430	347.70627	-794.55618	-105.62603	748.12613	-422.12826	-40.68353	659.61988	-433.61205	-74.13420	604.23903	-407.37550	-197.39546	681.55449	-419.72992	-124.74255	589.93069	-429.42549	-22.52033	744.22270	-760.37612	65.24102	637.66849	-735.83555	-95.95925	676.83992	-806.13675	-14.22412	575.30895	-776.01645	-115.65318	876.07636	-470.47522	-289.43586	954.87133	-580.88373	-73.14222	866.02758	-716.17795	-268.92703	952.65516	-674.98440	-103.79938	1380.33630	-603.36865	-43.40694	1398.99040	-490.14295	-30.43870	1394.33533	-688.62905	24.39467	1321.10728	-570.82812	25.91201	1304.39026	-609.00879	23.11395	1437.39091	-445.42952	219.46624	1424.58740	-361.81550	183.04957	1465.99632	-317.68469	183.13149	1544.56851	-366.86856	218.15906	1643.41474	-493.88694	251.99998	1658.41570	-458.74403	34.93601	1440.55406	-720.34293	233.91311	1466.80744	-758.02436	187.27871	1522.15227	-797.11372	175.09002	1573.94528	-740.70942	192.67764	1665.03955	-595.14603	216.27693	1695.83441	-633.55368	-212.04207	811.00876	-507.89875	-178.47777	804.84929	-694.36549	-199.34196	816.67256	-523.13570	-164.27830	812.88305	-684.02049	
189	1.88000000	-16.07490	496.71426	-440.01500	-2.09432	391.71836	-441.26070	-215.03381	145.04257	-444.15101	-285.92660	139.71105	-499.69596	-140.43303	49.15661	-395.12472	-90.15215	65.46500	-440.89604	49.99989	511.70770	-756.02804	68.87479	415.53073	-745.90493	-132.17408	150.56261	-759.97931	-218.09682	141.26553	-705.22285	-75.40603	52.92752	-804.70463	-14.66247	58.25378	-757.59658	-57.93550	292.23130	-441.23901	-60.46341	423.69575	-404.56170	-123.57894	327.63097	-403.68781	2.56127	462.09541	-786.74003	-53.60689	354.33916	-796.53284	-100.38932	764.32925	-422.68180	-39.34689	672.94079	-433.33157	-74.82938	619.12425	-406.81262	-194.74195	701.35284	-419.74780	-126.17365	607.01620	-428.35804	-17.78485	757.53370	-760.92477	65.27607	646.69161	-737.18175	-94.49024	693.40363	-806.44455	-17.20756	588.34768	-777.86117	-108.00454	897.31505	-470.71957	-282.67336	973.97088	-580.75316	-65.96777	887.93614	-717.10573	-262.49072	971.64864	-674.74955	-107.45820	1403.58550	-603.11717	-47.94291	1425.28032	-491.66314	-35.60921	1418.84399	-686.41848	20.72080	1342.02373	-568.47204	23.66264	1330.70132	-609.79680	15.41406	1467.42621	-448.74342	212.06454	1464.39895	-362.50362	173.07317	1506.83954	-321.50727	175.16671	1584.92990	-372.02157	218.31917	1683.90352	-496.16021	249.98729	1699.43142	-459.05779	26.20981	1468.18579	-718.05180	222.99677	1504.15755	-758.32971	173.48039	1559.01458	-793.30759	164.83649	1610.90297	-735.93167	194.89117	1702.78579	-591.72629	213.27860	1734.36652	-632.45478	-203.39378	830.98393	-508.04257	-170.36644	825.29469	-694.61962	-191.18382	837.27672	-523.00361	-156.53838	833.29042	-684.35859	
190	1.89000000	-22.85852	508.88566	-438.05148	-7.76312	403.56616	-438.72989	-210.95376	149.31925	-441.82793	-280.88464	147.33964	-497.38156	-138.95348	49.60062	-394.30871	-88.41926	64.76305	-439.82989	43.38720	521.90232	-758.07941	62.68079	425.81268	-748.09396	-128.29850	154.33605	-761.73170	-213.55095	147.87917	-706.71525	-74.05631	53.75020	-805.08992	-13.22295	57.84031	-758.11970	-59.81590	302.31876	-438.02682	-67.22734	433.40779	-402.18458	-126.73074	335.07155	-401.64993	-5.03354	470.42278	-788.85105	-57.68168	361.46039	-799.47368	-95.11515	781.25125	-423.17614	-38.20857	687.05289	-432.79800	-75.88576	634.87058	-405.98779	-192.12002	722.23466	-419.67928	-127.91269	625.12064	-426.97480	-13.36548	771.52516	-761.67717	64.05684	656.41838	-739.04328	-93.60344	711.40237	-806.92544	-21.34226	602.41430	-780.11433	-99.95441	919.54657	-471.03079	-275.56956	993.62699	-580.94809	-58.37429	912.65400	-717.98174	-255.70799	991.29441	-674.70503	-111.93176	1427.38861	-602.88719	-52.98694	1451.71404	-492.41083	-41.28743	1443.77288	-684.26590	16.22194	1362.68345	-566.13620	20.97180	1358.20754	-610.20153	7.64362	1496.59590	-451.66235	204.74121	1502.77109	-363.61628	163.52322	1545.99809	-325.98786	167.61429	1624.00418	-377.42407	219.04514	1724.03671	-496.90405	248.06713	1739.56933	-457.74405	17.93932	1495.92681	-715.41651	212.65769	1539.95677	-758.05463	160.49513	1594.46003	-789.13510	155.79254	1646.58834	-730.86540	196.93291	1740.34504	-589.80690	210.56245	1771.95605	-632.14473	-193.83467	851.60836	-508.83993	-160.98421	847.47544	-695.48562	-182.36696	859.50080	-522.96403	-148.11027	855.47803	-684.67467	
191	1.90000000	-30.94534	521.74681	-436.15390	-14.64876	416.77082	-435.37561	-206.43736	154.30331	-438.15000	-274.92973	155.95689	-493.83374	-137.21584	49.92777	-393.05451	-86.31836	64.09299	-438.48212	34.97086	532.90134	-760.44948	55.13332	437.11743	-750.74550	-124.28647	158.47054	-763.82369	-208.50131	155.03335	-708.77187	-72.58314	54.59588	-805.74482	-11.66992	57.35767	-758.82708	-62.37966	313.29944	-434.50151	-75.63453	444.07429	-399.67117	-130.88969	343.14055	-398.82802	-13.76061	479.93696	-793.26155	-62.63917	368.62468	-802.52751	-89.82739	798.79119	-423.83887	-37.39731	701.69917	-432.42950	-77.53985	651.63014	-404.97546	-189.51218	744.27457	-419.45555	-130.07564	644.35260	-425.27183	-9.26296	786.20348	-762.34263	61.50251	666.81214	-741.18901	-93.14912	730.95923	-807.32088	-26.66312	617.67935	-782.48557	-91.45148	942.64797	-471.77162	-268.09145	1013.81548	-581.38088	-50.31261	938.74093	-719.03387	-248.43026	1011.50376	-674.86006	-117.03269	1451.55214	-602.57354	-58.55484	1478.34935	-493.30383	-47.81530	1469.34952	-683.26497	11.91732	1385.46017	-565.05489	17.81143	1387.03438	-609.92092	0.11794	1525.58400	-454.42652	197.44847	1539.81125	-365.78125	154.59795	1583.30949	-330.88095	160.68164	1661.50714	-382.43371	220.31114	1763.38122	-496.59523	246.23308	1778.34414	-455.25569	9.63038	1523.93369	-712.91039	203.31066	1574.01178	-757.37910	148.65036	1628.29340	-785.01332	147.77392	1680.70229	-725.93205	198.52775	1776.87007	-589.79234	207.76396	1808.36820	-633.35325	-183.53067	872.90957	-510.05108	-150.82046	870.67992	-696.75607	-172.97713	882.71919	-523.41711	-138.93224	878.71606	-685.28377	
